<svg width="153" height="66" viewBox="0 0 153 66" fill="none" xmlns="http://www.w3.org/2000/svg">
<path d="M66.125 17.4305H71.0498V46.4811H66.125V17.4305ZM75.9745 17.4305H86.0178C88.2035 17.4305 90.0295 17.6795 91.4406 18.1498C92.8516 18.6202 93.9859 19.2842 94.7883 20.1142C95.5844 20.8987 96.1738 21.8683 96.5037 22.9363C96.8372 24.0208 97.0051 25.1494 97.0017 26.284C97.007 27.4914 96.8393 28.6933 96.5037 29.8531C96.1766 30.9709 95.5886 31.995 94.7883 32.8411C93.8453 33.7664 92.6988 34.4581 91.4406 34.8608C90.0295 35.3589 88.2588 35.6079 86.1008 35.6079H80.8163V46.4811H75.9745V17.4305ZM85.9901 31.5408C87.0259 31.5714 88.0605 31.4502 89.0612 31.1811C89.7614 30.9959 90.4067 30.6448 90.9425 30.1574C91.398 29.7147 91.7316 29.162 91.9109 28.5527C92.0934 27.8667 92.1864 27.1599 92.1876 26.45C92.2039 25.73 92.1106 25.0116 91.9109 24.3196C91.727 23.7296 91.382 23.2026 90.9149 22.7979C90.358 22.3439 89.7052 22.0222 89.0058 21.8572C88.0197 21.6139 87.0056 21.5023 85.9901 21.5252H80.8717V31.5408H85.9901ZM119.163 17.4305V21.6636H105.551V29.8807H118.361V34.1415H105.551V46.4811H100.626V17.4305H119.163ZM126.412 37.5999C126.633 39.5089 127.325 40.8923 128.459 41.75C129.594 42.6077 131.337 43.0503 133.605 43.0503C134.55 43.0775 135.493 42.9562 136.4 42.6907C137.063 42.4823 137.682 42.1541 138.226 41.7223C138.67 41.337 139.005 40.8405 139.194 40.2836C139.387 39.7135 139.48 39.1146 139.471 38.5129C139.476 38.0537 139.411 37.5965 139.277 37.1572C139.125 36.6976 138.88 36.274 138.558 35.9122C138.155 35.4939 137.676 35.1559 137.147 34.9162C136.421 34.603 135.659 34.38 134.878 34.2522L131.171 33.5605C129.845 33.3256 128.54 32.9832 127.27 32.5368C126.222 32.178 125.248 31.6345 124.392 30.9321C123.62 30.2761 123.021 29.4399 122.649 28.4974C122.234 27.3736 122.037 26.1811 122.068 24.9836C122.024 23.7708 122.288 22.5665 122.834 21.4829C123.381 20.3993 124.193 19.4716 125.195 18.7862C126.247 18.052 127.43 17.5261 128.681 17.2368C130.112 16.8949 131.58 16.7277 133.052 16.7388C135.044 16.7388 136.732 16.9601 138.088 17.4305C139.293 17.806 140.412 18.4173 141.38 19.2288C142.187 19.9453 142.837 20.8214 143.289 21.8019C143.721 22.7713 144.019 23.7952 144.174 24.8453L139.526 25.5646C139.139 23.9323 138.503 22.7426 137.562 21.9402C136.621 21.1379 135.155 20.7505 133.107 20.7505C132.13 20.7348 131.155 20.8369 130.202 21.0549C129.526 21.2166 128.887 21.5079 128.321 21.9126C127.876 22.2417 127.523 22.6801 127.297 23.1853C127.098 23.6584 126.995 24.1661 126.993 24.6793C126.993 25.952 127.325 26.8927 128.017 27.529C128.708 28.1654 129.926 28.6357 131.669 28.9954L135.681 29.7701C138.752 30.3511 140.993 31.3194 142.431 32.6751C143.87 34.0308 144.589 36.0229 144.589 38.5959C144.599 39.7634 144.373 40.9208 143.925 41.999C143.476 43.0574 142.773 43.9887 141.878 44.7104C140.863 45.535 139.698 46.1551 138.447 46.5364C136.896 47.0067 135.281 47.2308 133.661 47.2004C129.953 47.2004 127.021 46.4257 124.918 44.8487C122.815 43.2717 121.626 40.8646 121.432 37.5999H126.412Z" fill="white"/>
<path d="M8.38281 45.3745L31.6233 58.7932L54.8638 45.3745V18.5373L31.6233 5.11865L8.38281 18.5373V45.3745Z" fill="#469EA2"/>
<path d="M29.2447 8.32764L12.3677 18.0665C12.3953 18.3702 12.3953 18.6758 12.3677 18.9795L29.217 28.7184C29.9098 28.2062 30.7487 27.9298 31.6102 27.9298C32.4718 27.9298 33.3107 28.2062 34.0035 28.7184L50.8528 18.9795C50.8252 18.6758 50.8252 18.3702 50.8528 18.0665L34.0311 8.32764C33.3383 8.83985 32.4995 9.11627 31.6379 9.11627C30.7763 9.11627 29.9375 8.83985 29.2447 8.32764ZM52.4852 21.6633L35.6082 31.5128C35.6996 32.3671 35.5188 33.2284 35.0915 33.9737C34.6641 34.719 34.0122 35.3102 33.2288 35.6629L33.2564 55.03C33.5293 55.1503 33.7889 55.2987 34.0311 55.4727L50.8805 45.7338C50.789 44.8795 50.9699 44.0182 51.3972 43.2729C51.8245 42.5276 52.4765 41.9363 53.2599 41.5837V22.1059C52.9902 21.9795 52.7311 21.8314 52.4852 21.6633ZM10.763 21.7739C10.5208 21.9479 10.2611 22.0963 9.98828 22.2166V41.6944C10.7813 42.0345 11.4422 42.6233 11.8714 43.3719C12.3006 44.1204 12.4747 44.9882 12.3677 45.8444L29.217 55.5833C29.4592 55.4093 29.7189 55.261 29.9917 55.1407V35.6629C29.1987 35.3227 28.5378 34.734 28.1086 33.9854C27.6794 33.2368 27.5052 32.369 27.6123 31.5128L10.763 21.7739Z" fill="#6ACAD1"/>
<path d="M31.6233 8.02356L52.4014 20.0312V44.0187L31.6233 56.0263L10.8452 44.0187V20.0035L31.6233 8.02356ZM31.6233 5.17383L8.38281 18.5925V45.4297L31.6233 58.8483L54.8638 45.4297V18.5925L31.6233 5.17383Z" fill="#469EA2"/>
<path d="M31.7893 36.5208H31.4573C30.8865 36.5223 30.321 36.4109 29.7933 36.1932C29.2656 35.9754 28.7862 35.6555 28.3826 35.2518C27.9789 34.8482 27.659 34.3688 27.4412 33.8411C27.2235 33.3134 27.1121 32.7479 27.1136 32.1771V31.8451C27.1121 31.2742 27.2235 30.7087 27.4412 30.1811C27.659 29.6534 27.9789 29.174 28.3826 28.7703C28.7862 28.3667 29.2656 28.0468 29.7933 27.829C30.321 27.6112 30.8865 27.4999 31.4573 27.5013H31.7893C32.3602 27.4999 32.9257 27.6112 33.4533 27.829C33.981 28.0468 34.4604 28.3667 34.8641 28.7703C35.2677 29.174 35.5876 29.6534 35.8054 30.1811C36.0232 30.7087 36.1346 31.2742 36.1331 31.8451V32.1771C36.1346 32.7479 36.0232 33.3134 35.8054 33.8411C35.5876 34.3688 35.2677 34.8482 34.8641 35.2518C34.4604 35.6555 33.981 35.9754 33.4533 36.1932C32.9257 36.4109 32.3602 36.5223 31.7893 36.5208ZM31.7893 54.3662H31.4573C30.6856 54.3639 29.9273 54.5679 29.2609 54.957C28.5944 55.3462 28.0441 55.9064 27.6669 56.5796L31.6233 58.8483L35.5797 56.5796C35.2025 55.9064 34.6522 55.3462 33.9858 54.957C33.3194 54.5679 32.5611 54.3639 31.7893 54.3662ZM54.8915 40.9476H54.7255C54.1547 40.9462 53.5892 41.0575 53.0615 41.2753C52.5338 41.4931 52.0544 41.813 51.6507 42.2166C51.2471 42.6203 50.9272 43.0997 50.7094 43.6274C50.4916 44.155 50.3803 44.7205 50.3817 45.2914V45.6234C50.3778 46.3608 50.5686 47.0862 50.9351 47.7261L54.8915 45.4297V40.9476ZM50.9351 16.3237C50.5719 16.965 50.3812 17.6895 50.3817 18.4265V18.7585C50.3803 19.3293 50.4916 19.8948 50.7094 20.4225C50.9272 20.9501 51.2471 21.4296 51.6507 21.8332C52.0544 22.2369 52.5338 22.5568 53.0615 22.7745C53.5892 22.9923 54.1547 23.1037 54.7255 23.1022H54.8915V18.5925L50.9351 16.3237ZM31.6233 5.17383L27.6669 7.44254C28.0423 8.1194 28.5915 8.68389 29.2578 9.07782C29.924 9.47175 30.6833 9.68086 31.4573 9.68359H31.7893C32.5611 9.68592 33.3194 9.48195 33.9858 9.0928C34.6522 8.70364 35.2025 8.14345 35.5797 7.47021L31.6233 5.17383ZM12.3392 16.2961L8.38281 18.5925V23.1022H8.54882C9.11966 23.1037 9.68516 22.9923 10.2128 22.7745C10.7405 22.5568 11.2199 22.2369 11.6236 21.8332C12.0272 21.4296 12.3471 20.9501 12.5649 20.4225C12.7827 19.8948 12.894 19.3293 12.8926 18.7585V18.4265C12.8832 17.682 12.6933 16.951 12.3392 16.2961ZM8.54882 40.9476H8.38281V45.4297L12.3392 47.7261C12.7024 47.0848 12.8931 46.3603 12.8926 45.6234V45.2914C12.894 44.7205 12.7827 44.155 12.5649 43.6274C12.3471 43.0997 12.0272 42.6203 11.6236 42.2166C11.2199 41.813 10.7405 41.4931 10.2128 41.2753C9.68516 41.0575 9.11966 40.9462 8.54882 40.9476Z" fill="#469EA2"/>
<path d="M31.6233 58.9866V32.1217L8.38281 18.7031V45.568L31.6233 58.9866Z" fill="#083B54" fill-opacity="0.15"/>
</svg>
