<svg width="56" height="55" viewBox="0 0 56 55" fill="none" xmlns="http://www.w3.org/2000/svg">
<path fill-rule="evenodd" clip-rule="evenodd" d="M31.3538 7.86181C30.7627 7.5227 30.7658 6.97204 31.3538 6.63604L41.5053 0.808926C42.0964 0.469815 43.0562 0.471371 43.6442 0.808926L53.7942 6.63604C54.3853 6.97515 54.3822 7.52582 53.7942 7.86181L43.6442 13.6905C43.0531 14.028 42.0933 14.0265 41.5053 13.6905L31.3538 7.86181ZM43.7158 17.5016C43.7158 16.8234 44.198 15.9958 44.7844 15.6583L54.9329 9.83426C55.5209 9.49515 56 9.78137 56 10.4674V38.8096C56 39.4987 55.5116 40.3371 54.9142 40.6809L30.2322 54.8443C29.6333 55.1896 29.1464 54.9158 29.1464 54.2407V42.5849C29.1464 41.9083 29.6333 41.0791 30.2167 40.7447L42.644 33.6125C43.2351 33.2703 43.7142 32.4396 43.7142 31.7676L43.7158 17.5016ZM12.2796 45.8718C12.2796 46.55 11.7973 46.8254 11.2109 46.4878L1.06867 40.6669C0.476 40.3278 0 39.4909 0 38.8065V10.4643C0 9.77515 0.49 9.49826 1.08578 9.84204L25.7678 24.0054C26.3667 24.3491 26.8536 25.1814 26.8536 25.8565V37.5107C26.8536 38.1889 26.3682 38.4596 25.7802 38.1236L13.3513 30.9914C12.7602 30.6491 12.2796 30.9323 12.2796 31.6043V45.8718ZM39.2031 14.9909C39.8036 15.3347 39.8082 15.8916 39.2202 16.2276L29.0671 22.0563C28.476 22.3954 27.5084 22.3891 26.9111 22.0469L2.22444 7.87581C1.624 7.53359 1.61933 6.9767 2.20733 6.63915L12.362 0.810482C12.9531 0.471371 13.9207 0.477593 14.518 0.819815L39.2031 14.9909ZM41.4322 30.4625C41.4322 31.1391 40.95 31.9667 40.3636 32.3011L30.2151 38.1267C29.6271 38.4658 29.1464 38.1874 29.1464 37.5123V25.8611C29.1464 25.1829 29.6287 24.3554 30.2151 24.0194L40.3651 18.1954C40.9531 17.8563 41.4338 18.1347 41.4338 18.8083L41.4322 30.4625ZM25.7833 40.7447C26.3744 41.0823 26.8536 41.9114 26.8536 42.5849V54.2407C26.8536 54.9189 26.3713 55.1927 25.7849 54.8551L15.6396 49.0343C15.0516 48.6951 14.5724 47.8676 14.5724 47.194V35.5367C14.5724 34.8585 15.0547 34.5847 15.6396 34.9223L25.7833 40.7447Z" fill="white"/>
</svg>
